<svg id="Layer_1" data-name="Layer 1" xmlns="http://www.w3.org/2000/svg" viewBox="0 0 592 557"><defs><style>.cls-1{fill:#3d5cff;}.cls-2{fill:#f74945;}</style></defs><path class="cls-1" d="M488.38,268.29c21.2,12.42,39.93,31.2,62.3,41.8a3,3,0,0,1,1.13,4.67c-6.11,7.34-15.28,12.93-27.8,9.47C508.27,319.88,491.44,301,476.6,294c-14.57-6.88-25.47,2.48-39.51-7-5.16-2.52,10.75-18.78,14-21.86,11.41-1.39,25.34-2.31,35.92,2.71C486.86,267.87,486.73,268,488.38,268.29Z"/><path class="cls-1" d="M407.79,294.36c40.37,3.32,48.17,23.69,67.71,44.11,11.82,12.36,27,10.08,35.66,2a3.6,3.6,0,0,0,.31-4.94c-6.57-7.87-18.07-17.09-25.06-24.71-23-27.71-34.5-42-69.87-24.65-2.25.88-4,2.51-6.06,3.69C408.23,290.48,405,291.73,407.79,294.36Z"/><path class="cls-1" d="M437.29,314c8.09,18.94-.69,43.19-7.68,67.13A2.76,2.76,0,0,1,426.1,383c-9.19-2.89-13.91-6.12-15.65-19-1.34-9.94,1.86-23.4.51-33.24-3.15-22.89-35.35-25.2-35.52-28.22,4.09-8.24,25.14-11.36,31.4-17.73C409.88,285.39,432.94,303.84,437.29,314Z"/><path class="cls-2" d="M47.72,527.92a7.85,7.85,0,0,0,13.86,2.7c54.17-72.05,109-139.58,191.8-184,30.17-16.17,55.49,3.91,75.17,7.34,42.55,7.43,61.68-1.25,93.22,5.7,13,2.85,35.23,13.71,38.27-2.76,1.94-10.53-10.49-16.72-36.18-23.51-6.12-1.62-43.65-12.08-54.95-18.4-4.32-2.42-2-4.36.24-4.79,19.44-3.72,29.34-8.65,43.82-16.34,22.82-10.77,47.23-12.88,75.78-12.74,19.64.1,45.91-.5,65.44-4.09,6.84-1.26,13.21-4.54,17.4-9.18,7.06-7.84.14-20.25-10.32-18.89-34.81,4.51-40.48,1.66-74.42,1-18.26-.36-83.57-7.4-101.23-9.05-42.91-4-69.69,9.51-155.88,30.47C201.67,278.2,174.9,299.5,166.58,308,143.71,331.37,88.21,382.89,25,419.57a7.87,7.87,0,0,0-3.69,8.82Z"/></svg>