<svg id="Layer_1" data-name="Layer 1" xmlns="http://www.w3.org/2000/svg" xmlns:xlink="http://www.w3.org/1999/xlink" viewBox="0 0 592 558"><defs><style>.cls-1{fill:#240e54;}.cls-2{fill:#8927d4;}.cls-3{clip-path:url(#clip-path);}.cls-4{fill:#f74945;}.cls-5{fill:#ffb2c6;}.cls-6{fill:#7bc8ff;}.cls-7{fill:#ff5653;}.cls-8{fill:#5f70fa;}.cls-9{fill:#3d5cff;}</style><clipPath id="clip-path"><path class="cls-1" d="M572.88,102.36a9,9,0,0,1-7.07,10.24c-87.56,17.59-125.88,38.14-219.08,61-27.3,6.7-39.28,11.45-50.28,23.32-9.11,9.82-20.67,15.84-39.67,23.8-27.29,11.42-29.82,3.48-89.5,37.36-11.84,6.72-27,10.74-33-1.08-4.29-8.52,2.39-13,23.49-25.77C178,219,181.5,211.41,191.93,203.86c2.89-2.1,1.48-4.66-2.3-3.32-9.43,3.32-10.06,4.91-28.67,5.84-25.06,1.25-40.63,4.89-57.07,13.55-12.39,6.53-38.07,22-56.49,29.13a34.38,34.38,0,0,1-12.66,2.35C8,251,5.62,239.45,29.28,227c32.23-17,46.89-29.55,66.93-41.22,15.7-9.13,72.05-29.48,89.21-37.55,38.49-18.1,112.3-21.34,151.16-34.08,71.43-23.4,135.06-52.38,212-88.21a8.94,8.94,0,0,1,12.59,6.61Z"/></clipPath></defs><path class="cls-2" d="M171.79,244c.08,24.43,6,47.38,5.66,72a3,3,0,0,0,3.67,3.06c9.23-2.23,17.66-4,20.95-16.46,4.13-15.71-3.73-39.64-2.34-55.89,1.37-16,39.62-30.18,38.46-47,.42-5.7-26-3.93-30.23-2.69-6.89,9.11-35,33.93-35.93,45.54C172.19,242.48,172.35,242.41,171.79,244Z"/><path class="cls-2" d="M265.33,214.42c-7.6,11.53-36.49,21.24-38,28.64-2.19,10.82,3.94,21.54,6.55,39.82,2.4,16.83-8.69,27.3-20.32,29.13a3.59,3.59,0,0,1-4.06-2.79c-2.12-10-5.61-24.74-7.29-34.88-7.56-35-11.62-52.75,23.63-69.78,2.07-1.22,12.85-5.7,15.07-6.62C242.76,196.55,265,210.66,265.33,214.42Z"/><path class="cls-2" d="M286.83,141.45a41.67,41.67,0,0,0-15.19,16.86c-6.73,13.69-9.75,31.35-11,47.23-5.23.11-10.11.06-13.21-1.23-2.58,1.7-16.58,27.51-16.64,38.5-.1,20.48,21.89,25.74,43.66,37.63a2.74,2.74,0,0,0,3.76-1.18c4.41-8.5,5.08-15.45-1.2-23.23-3-3.75-8.34-6.67-10.94-8.36-4.32-2.81-3.86-3.31-3.68-6.92.83-16.92,29.9-15.49,50.33-31.64,9.32-7.36,15.52-16.44,23.22-24.91,6.38-7,20.93-14.87,30.46-17C347.94,146.09,314.9,140.65,286.83,141.45Z"/><path class="cls-1" d="M572.88,102.36a9,9,0,0,1-7.07,10.24c-87.56,17.59-125.88,38.14-219.08,61-27.3,6.7-39.28,11.45-50.28,23.32-9.11,9.82-20.67,15.84-39.67,23.8-27.29,11.42-29.82,3.48-89.5,37.36-11.84,6.72-27,10.74-33-1.08-4.29-8.52,2.39-13,23.49-25.77C178,219,181.5,211.41,191.93,203.86c2.89-2.1,1.48-4.66-2.3-3.32-9.43,3.32-10.06,4.91-28.67,5.84-25.06,1.25-40.63,4.89-57.07,13.55-12.39,6.53-38.07,22-56.49,29.13a34.38,34.38,0,0,1-12.66,2.35C8,251,5.62,239.45,29.28,227c32.23-17,46.89-29.55,66.93-41.22,15.7-9.13,72.05-29.48,89.21-37.55,38.49-18.1,112.3-21.34,151.16-34.08,71.43-23.4,135.06-52.38,212-88.21a8.94,8.94,0,0,1,12.59,6.61Z"/><g class="cls-3"><circle class="cls-4" cx="364.04" cy="109.48" r="10.72"/><path class="cls-5" d="M434.77,119.48a5.16,5.16,0,1,0,5.16-5.15A5.16,5.16,0,0,0,434.77,119.48Z"/><path class="cls-6" d="M326.78,151.45a5.16,5.16,0,1,0,5.15-5.15A5.15,5.15,0,0,0,326.78,151.45Z"/><path class="cls-7" d="M290,183.77a2.58,2.58,0,1,0,2.58-2.58A2.58,2.58,0,0,0,290,183.77Z"/><circle class="cls-5" cx="167.27" cy="200.76" r="1.71"/><circle class="cls-4" cx="39.93" cy="242.39" r="1.71"/><circle class="cls-5" cx="313.76" cy="130.81" r="1.71"/><circle class="cls-5" cx="499.28" cy="63.7" r="1.71"/><circle class="cls-2" cx="451.77" cy="110.09" r="1.71"/><circle class="cls-7" cx="511.06" cy="110.22" r="1.71"/><circle class="cls-6" cx="263.45" cy="141.98" r="1.71"/><circle class="cls-6" cx="184.56" cy="239.03" r="1.71"/><circle class="cls-6" cx="416.91" cy="141.13" r="1.71"/><circle class="cls-6" cx="334.55" cy="135.81" r="1.71"/><circle class="cls-6" cx="106.88" cy="204.85" r="1.71"/><path class="cls-7" d="M218.51,224.2a1.72,1.72,0,1,0-1.71,1.71A1.72,1.72,0,0,0,218.51,224.2Z"/><path class="cls-6" d="M218.54,167a2.7,2.7,0,1,0-2.7,2.7A2.7,2.7,0,0,0,218.54,167Z"/><path class="cls-7" d="M459.58,115.33a2.58,2.58,0,1,0,2.58-2.58A2.58,2.58,0,0,0,459.58,115.33Z"/><path class="cls-5" d="M125.42,197.17a5.84,5.84,0,1,0,5.84-5.84A5.85,5.85,0,0,0,125.42,197.17Z"/><path class="cls-4" d="M487.22,90.67a14.76,14.76,0,1,1-13.35-16A14.74,14.74,0,0,1,487.22,90.67Z"/><ellipse class="cls-2" cx="472.53" cy="89.33" rx="29.09" ry="7.05" transform="translate(-8.27 99.2) rotate(-11.88)"/><path class="cls-4" d="M473.26,92.83c7.95-1.67,14.06-4.58,13.72-6.52a14.77,14.77,0,0,0-28.9,6.07C458.52,94.3,465.31,94.5,473.26,92.83Z"/><circle class="cls-6" cx="480.1" cy="76.69" r="1.8"/><path class="cls-6" d="M482.54,130.21a5.84,5.84,0,1,0,5.84-5.85A5.85,5.85,0,0,0,482.54,130.21Z"/><circle class="cls-2" cx="206.18" cy="140.82" r="6.28"/><circle class="cls-4" cx="361.28" cy="167.18" r="5.15"/><path class="cls-8" d="M403.79,135.58c-8.48-1-10.84-10.4-11.34-20a.33.33,0,0,0-.34-.3h0a.34.34,0,0,0-.34.3c-.46,8.44-2,17.89-11.34,20a.26.26,0,0,0,0,.5c9,1.83,10.68,11,11.34,20a.34.34,0,0,0,.34.31h0a.34.34,0,0,0,.34-.31c.2-8.07,2.15-18,11.34-20C404.05,136,404.06,135.61,403.79,135.58Z"/><path class="cls-2" d="M277.39,167.09c-4.65-.52-5.94-5.69-6.22-10.94A.19.19,0,0,0,271,156h0a.19.19,0,0,0-.19.17c-.25,4.63-1.1,9.8-6.21,10.94a.14.14,0,0,0,0,.28c5,1,5.85,6,6.21,10.94a.19.19,0,0,0,.19.17h0a.18.18,0,0,0,.18-.17c.11-4.43,1.18-9.88,6.22-10.94A.15.15,0,0,0,277.39,167.09Z"/><path class="cls-7" d="M190.25,190a3.25,3.25,0,1,1-3.24-3.25A3.24,3.24,0,0,1,190.25,190Z"/><path class="cls-9" d="M156.51,241.7a3.25,3.25,0,1,1-3.25-3.25A3.25,3.25,0,0,1,156.51,241.7Z"/><path class="cls-6" d="M137.46,178.72a2.16,2.16,0,1,1,2.16,2.16A2.16,2.16,0,0,1,137.46,178.72Z"/><path class="cls-8" d="M232.93,200.77c8-.59,10.26-6.45,10.73-12.38,0-.11.16-.19.32-.19h0c.17,0,.31.08.33.19.43,5.23,1.89,11.09,10.73,12.38.25,0,.25.28,0,.31-8.55,1.14-10.11,6.81-10.73,12.39,0,.11-.16.19-.32.19h0c-.17,0-.31-.08-.33-.19-.18-5-2-11.19-10.73-12.39C232.68,201.05,232.68,200.79,232.93,200.77Z"/><path class="cls-5" d="M64,219.81a2.16,2.16,0,1,1-2.16-2.16A2.16,2.16,0,0,1,64,219.81Z"/><path class="cls-8" d="M106.06,227.27a9.82,9.82,0,1,1-9.81-9.81A9.82,9.82,0,0,1,106.06,227.27Z"/></g></svg>